<?xml version="1.0" encoding="utf-8"?>
<!-- Generator: Adobe Illustrator 23.0.0, SVG Export Plug-In . SVG Version: 6.00 Build 0)  -->
<svg version="1.1" id="Capa_1" xmlns="http://www.w3.org/2000/svg" xmlns:xlink="http://www.w3.org/1999/xlink" x="0px" y="0px"
	 viewBox="0 0 375 375" style="enable-background:new 0 0 375 375;" xml:space="preserve">
<style type="text/css">
	.st0{fill:#FFFFFF;}
</style>
<path class="st0" d="M364.4,194.4c-3.6-0.3-7.1-1.3-10.7-1.7c-1.8-0.2-2.1-0.9-2.1-2.6c0.3-12.4-0.9-24.7-3.6-36.8
	c-0.4-1.7-0.1-2.3,1.6-2.9c3.5-1.1,7-2.7,10.5-3.9c1.9-0.6,2.3-1.3,1.6-3.2c-4.7-12.2-9.4-24.4-13.9-36.7c-0.8-2.2-1.7-2.2-3.5-1.5
	c-3.3,1.4-6.8,2.5-10.1,3.9c-1.9,0.8-2.8,0.5-3.8-1.3c-5.9-10.6-13.1-20.3-21.4-29.2c-1.3-1.3-1.5-2.2-0.2-3.7
	c2.7-3,5.1-6.2,7.7-9.2c1.1-1.3,1.3-2.1-0.2-3.3C306,54,295.8,45.6,285.6,37.1c-1.4-1.2-2.1-1.1-3.2,0.3c-2.5,3.3-5.3,6.3-7.8,9.6
	c-1.3,1.8-2.4,1.9-4.3,0.8c-10.2-6-20.9-10.6-32.2-13.9c-2.6-0.8-2.8-1.9-2.4-4c0.8-4.1,1.5-8.3,2.2-12.5c0.3-1.4,0.3-2.5-1.7-2.8
	c-13.1-2.1-26.2-4.3-39.2-6.5c-2-0.4-2.6,0.3-2.8,2.2c-0.6,4.6-1.5,9.1-2.2,13.7c-0.2,1.8-0.6,2.9-2.9,2.9
	c-11.8-0.2-23.5,1.3-34.9,4.1c-1.8,0.4-2.3-0.2-2.9-1.7c-1.8-4.9-3.7-9.6-5.4-14.4c-0.6-1.8-1.2-2.3-3.1-1.6
	c-12.2,4.7-24.4,9.3-36.7,13.8c-2.1,0.8-2.2,1.7-1.5,3.5c2,4.8,3.7,9.8,5.7,14.6c0.9,2.1,0.4,3-1.5,4.1C99,55,90,61.7,81.8,69.4
	c-1.3,1.3-2.2,1.3-3.6,0.1c-4.3-3.6-8.7-7.1-13-10.7c-1.3-1.1-2.1-1.5-3.5,0.2c-8.3,10.2-16.6,20.3-25,30.4
	c-1.5,1.8-0.9,2.5,0.6,3.7c4.4,3.5,8.6,7.2,13.1,10.6c1.8,1.4,1.9,2.4,0.8,4.3c-5.4,9.2-9.8,19-12.9,29.3c-0.8,2.6-2,3.1-4.5,2.6
	c-5.7-1.2-11.5-2-17.8-3.1c-1.4-0.5-1.4,0.9-1.6,2.1c-2.1,13-4.3,25.9-6.5,38.8c-0.4,1.8,0.1,2.5,2.1,2.8c5.9,0.8,11.8,1.9,17.7,2.8
	c2,0.3,2.7,1,2.6,3.1c-0.2,11.1,1,22,3.2,32.8c0.4,2.1-0.1,2.7-2,3.4c-5.6,2-11.1,4.4-16.8,6.3c-2.1,0.7-2.3,1.5-1.6,3.4
	c4.6,12.1,9.3,24.2,13.7,36.4c0.9,2.4,1.9,2.4,3.8,1.6c5.3-2.1,10.7-3.9,16-6.1c2-0.8,3-0.6,4.1,1.4c5.2,9.5,11.4,18.4,18.6,26.6
	c1.6,1.7,1.7,2.8,0.1,4.6c-3.8,4.3-7.3,8.8-11,13.2c-1.2,1.4-1,2.1,0.4,3.2c10.2,8.3,20.3,16.6,30.4,25c1.8,1.5,2.6,1.1,3.8-0.5
	c3.3-4.2,6.8-8.2,10.1-12.5c1.3-1.7,2.3-1.9,4.2-0.7c9.4,5.9,19.5,10.6,30,14.2c2,0.7,2.6,1.7,2.2,3.8c-1,4.8-1.6,9.8-2.6,14.7
	c-0.4,2.2-0.2,3.2,2.4,3.6c12.7,2,25.3,4.1,38,6.3c1.9,0.3,2.8,0,3.1-2.2c0.6-5,1.7-9.9,2.4-14.8c0.3-1.8,0.9-2.5,2.8-2.4
	c11.8,0.5,23.5-0.3,35.1-2.6c2.1-0.4,2.5,0.4,3.1,2c1.6,4.5,3.4,8.8,5,13.3c0.6,1.6,1.2,2.2,2.9,1.5c12.4-4.7,24.9-9.5,37.4-14.1
	c1.7-0.6,1.8-1.2,1.2-2.7c-1.7-4.3-3.2-8.6-4.9-12.9c-0.7-1.6-0.3-2.4,1.2-3.2c10.7-5.7,20.7-12.5,29.8-20.6
	c1.6-1.3,2.4-0.9,3.7,0.2c3.2,2.7,6.6,5.3,9.8,8.1c1.2,1,1.9,1.1,3-0.2c8.4-10.4,16.9-20.7,25.4-31c1-1.3,1-2-0.3-3
	c-3.1-2.4-6.1-5.1-9.3-7.5c-1.7-1.2-1.8-2.2-0.7-3.9c6.4-10.3,11.5-21.2,15.2-32.8c0.7-2.2,1.8-2.5,3.8-2.1
	c3.4,0.7,6.9,1.1,10.3,1.9c2.3,0.5,3.1-0.2,3.4-2.4c2-12.6,4.1-25.1,6.2-37.7C367.3,195.9,367.1,194.6,364.4,194.4z M186.3,330.8
	c-78.7-0.4-142.3-65-142.1-144.4C44.4,108.2,109,44.1,187.7,44.2c79.2,0.1,143.1,64.4,143,144.2
	C330.7,267.1,265.6,331.2,186.3,330.8z"/>
<path class="st0" d="M185.2,58.2c-69.8,0.6-127.5,59.4-126.9,129.4c0.6,72.7,58.5,129.8,130.9,129.2
	c70.4-0.5,128.2-59.2,127.5-129.6C316,114.4,258.1,57.6,185.2,58.2z M214.4,299.9c-34,8.1-65.6,1.4-94.3-18.5
	c-2.2-1.5-2.3-2.4-0.6-4.4c26.1-31.7,52.2-63.5,78.2-95.3c1.7-2,2.6-2.1,4.6-0.4c11.5,9.6,23.2,19,34.7,28.6
	c1.9,1.6,2.8,1.6,4.4-0.4c13.3-16.4,26.7-32.7,40.2-49c1.6-2,1.1-2.7-0.5-4c-25.7-21-51.4-42.1-77.1-63.2c-1.1-0.9-1.9-1.5-3.6-0.9
	c-24.9,8.7-49.6,17.2-74.8,26c15.2,12.4,29.8,24.5,44.5,36.5c1.2,1,2.3,1.9,3.5,2.9c5.3,4.4,5.3,4.3,1.1,9.5
	c-24.8,30.2-49.6,60.5-74.4,90.7c-0.6,0.8-1.3,1.5-2.2,2.5c-6.9-8.2-12.2-17-16.4-26.6C52.5,165.8,91.8,89.8,164.2,74.2
	C225.7,61,288.3,102,300.7,163.7C313.1,225.8,275.7,285.2,214.4,299.9z"/>
</svg>
